<?xml version="1.0" encoding="UTF-8"?>
<!DOCTYPE svg PUBLIC "-//W3C//DTD SVG 1.1//EN" "http://www.w3.org/Graphics/SVG/1.1/DTD/svg11.dtd">
<!-- Creator: CorelDRAW X8 -->
<svg xmlns="http://www.w3.org/2000/svg" xml:space="preserve" width="210mm" height="297mm" version="1.1" style="shape-rendering:geometricPrecision; text-rendering:geometricPrecision; image-rendering:optimizeQuality; fill-rule:evenodd; clip-rule:evenodd"
viewBox="0 0 21000 29700"
 xmlns:xlink="http://www.w3.org/1999/xlink">
 <defs>
  <style type="text/css">
   <![CDATA[
    .str0 {stroke:white;stroke-width:2540;stroke-linecap:round;stroke-linejoin:round}
    .fil1 {fill:none}
    .fil0 {fill:#FEFEFE}
   ]]>
  </style>
 </defs>
 <g id="Слой_x0020_1">
  <metadata id="CorelCorpID_0Corel-Layer"/>
  <path class="fil0" d="M19204 19856l0 2760c0,2 0,5 0,7 0,1016 -824,1840 -1840,1840 -56,0 -111,-2 -166,-7 -2830,-307 -5553,-1276 -7940,-2826 -2221,-1410 -4109,-3298 -5520,-5519 -1556,-2400 -2525,-5136 -2825,-7977 -6,-55 -8,-111 -8,-166 0,-1015 823,-1839 1839,-1840l2760 0c6,0 12,0 18,0 917,0 1694,675 1822,1583 115,881 334,1752 644,2586 78,206 118,425 118,646 0,485 -191,950 -532,1294l-1169 1169c1310,2302 3218,4211 5521,5519l1168 -1168c345,-340 810,-531 1294,-531 221,0 441,40 648,118 833,310 1704,529 2585,645 908,126 1583,904 1583,1821 0,15 0,31 0,45l0 1z"/>
  <path class="fil1 str0" d="M10184 7235c3844,427 6883,3461 7315,7306"/>
  <path class="fil1 str0" d="M10184 10916c1838,359 3276,1796 3634,3634"/>
 </g>
</svg>
