<?xml version="1.0" encoding="UTF-8"?>
<!DOCTYPE svg PUBLIC "-//W3C//DTD SVG 1.1//EN" "http://www.w3.org/Graphics/SVG/1.1/DTD/svg11.dtd">
<!-- Creator: CorelDRAW X8 -->
<svg xmlns="http://www.w3.org/2000/svg" xml:space="preserve" width="210mm" height="297mm" version="1.1" style="shape-rendering:geometricPrecision; text-rendering:geometricPrecision; image-rendering:optimizeQuality; fill-rule:evenodd; clip-rule:evenodd"
viewBox="0 0 21000 29700"
 xmlns:xlink="http://www.w3.org/1999/xlink"
 data-name="Layer 1"
 enable-background="new 0 0 512 512">
 <defs>
  <style type="text/css">
   <![CDATA[
    .fil0 {fill:white}
   ]]>
  </style>
 </defs>
 <g id="Слой_x0020_1">
  <metadata id="CorelCorpID_0Corel-Layer"/>
  <path class="fil0" d="M7973 18686c0,-2416 0,-4811 0,-7231 -533,0 -1050,0 -1579,0 0,-821 0,-1616 0,-2437 70,-4 140,-12 214,-12 381,0 767,-8 1148,4 168,4 226,-41 222,-213 -9,-624 -9,-1243 -5,-1866 5,-702 201,-1337 702,-1846 484,-492 1103,-759 1776,-800 1083,-61 2169,-53 3256,-74 13,0 25,13 50,25 0,824 0,1653 0,2502 -78,4 -152,8 -222,8 -492,0 -984,0 -1476,0 -497,4 -788,299 -788,788 0,463 0,931 4,1394 0,12 8,25 21,70 812,0 1632,0 2493,0 -106,832 -205,1628 -311,2453 -743,0 -1469,0 -2215,0 0,2428 0,4831 0,7243 -1103,-8 -2178,-8 -3290,-8z"/>
 </g>
</svg>
