<?xml version="1.0" encoding="UTF-8"?>
<!DOCTYPE svg PUBLIC "-//W3C//DTD SVG 1.1//EN" "http://www.w3.org/Graphics/SVG/1.1/DTD/svg11.dtd">
<!-- Creator: CorelDRAW X8 -->
<svg xmlns="http://www.w3.org/2000/svg" xml:space="preserve" width="210mm" height="297mm" version="1.1" style="shape-rendering:geometricPrecision; text-rendering:geometricPrecision; image-rendering:optimizeQuality; fill-rule:evenodd; clip-rule:evenodd"
viewBox="0 0 21000 29700"
 xmlns:xlink="http://www.w3.org/1999/xlink"
 data-name="Layer 1"
 enable-background="new 0 0 512 512">
 <defs>
  <style type="text/css">
   <![CDATA[
    .fil0 {fill:white}
   ]]>
  </style>
 </defs>
 <g id="Слой_x0020_1">
  <metadata id="CorelCorpID_0Corel-Layer"/>
  <g id="_1826373035152">
   <g>
    <path class="fil0" d="M9742 11065c-307,0 -558,252 -558,558 0,307 251,559 558,559 307,0 556,-252 556,-559 0,-306 -251,-558 -556,-558zm0 984c-235,0 -426,-190 -426,-426 0,-235 191,-426 426,-426 233,0 424,191 424,426 0,236 -191,426 -424,426z"/>
    <path class="fil0" d="M10364 10750c-58,0 -111,21 -151,61 -39,40 -61,93 -61,151 0,58 22,111 61,151 40,39 93,61 151,61 58,0 111,-22 151,-61l0 0c37,-37 61,-90 63,-148l0 -3c0,-56 -23,-109 -61,-146 -39,-42 -95,-66 -153,-66zm56 268c-30,29 -85,29 -114,0 -16,-16 -24,-35 -24,-56 0,-21 8,-42 24,-56 16,-15 34,-23 55,-23 22,0 43,8 59,23 13,14 23,35 23,53 0,24 -8,45 -23,59z"/>
    <path class="fil0" d="M10205 10483l-928 0c-373,0 -675,302 -675,675l0 931c0,373 302,675 675,675l931 0c373,0 675,-302 675,-675l0 -931c-3,-373 -305,-675 -678,-675zm543 1606c0,299 -244,542 -543,542l-928 0c-299,0 -543,-243 -543,-542l0 -931c0,-299 244,-543 543,-543l931 0c299,0 542,244 542,543l0 931 -2 0z"/>
   </g>
  </g>
 </g>
</svg>
