<?xml version="1.0" encoding="UTF-8"?>
<!DOCTYPE svg PUBLIC "-//W3C//DTD SVG 1.1//EN" "http://www.w3.org/Graphics/SVG/1.1/DTD/svg11.dtd">
<!-- Creator: CorelDRAW X8 -->
<svg xmlns="http://www.w3.org/2000/svg" xml:space="preserve" width="210mm" height="297mm" version="1.1" style="shape-rendering:geometricPrecision; text-rendering:geometricPrecision; image-rendering:optimizeQuality; fill-rule:evenodd; clip-rule:evenodd"
viewBox="0 0 21000 29700"
 xmlns:xlink="http://www.w3.org/1999/xlink"
 data-name="Layer 1">
 <defs>
  <style type="text/css">
   <![CDATA[
    .fil0 {fill:white}
   ]]>
  </style>
 </defs>
 <g id="Слой_x0020_1">
  <metadata id="CorelCorpID_0Corel-Layer"/>
  <path class="fil0" d="M16237 19134c-1589,1009 -3776,1409 -5220,1560l1212 1195 4426 4426c1618,1659 -1015,4252 -2651,2651 -1108,-1125 -2732,-2749 -4426,-4443l-4426 4437c-1636,1596 -4269,-1021 -2634,-2651 1126,-1125 2733,-2749 4426,-4426l1195 -1195c-1427,-150 -3648,-527 -5255,-1560 -1891,-1218 -2721,-1932 -1990,-3422 429,-847 1607,-1561 3167,-331 0,0 2106,1676 5505,1676 3400,0 5505,-1676 5505,-1676 1561,-1224 2732,-516 3168,331 719,1490 -111,2204 -2002,3428l0 0zm-14200 -11851c0,-4159 3382,-7524 7524,-7524 4141,0 7523,3365 7523,7524 0,4142 -3382,7506 -7523,7506 -4142,0 -7524,-3364 -7524,-7506zm3828 0c0,2036 1659,3695 3696,3695 2036,0 3695,-1659 3695,-3695 0,-2054 -1659,-3713 -3695,-3713 -2037,0 -3696,1659 -3696,3713z"/>
 </g>
</svg>
