<?xml version="1.0" encoding="UTF-8"?>
<!DOCTYPE svg PUBLIC "-//W3C//DTD SVG 1.1//EN" "http://www.w3.org/Graphics/SVG/1.1/DTD/svg11.dtd">
<!-- Creator: CorelDRAW X8 -->
<svg xmlns="http://www.w3.org/2000/svg" xml:space="preserve" width="210mm" height="297mm" version="1.1" style="shape-rendering:geometricPrecision; text-rendering:geometricPrecision; image-rendering:optimizeQuality; fill-rule:evenodd; clip-rule:evenodd"
viewBox="0 0 21000 29700"
 xmlns:xlink="http://www.w3.org/1999/xlink"
 data-name="Layer 1"
 enable-background="new 0 0 512 512">
 <defs>
  <style type="text/css">
   <![CDATA[
    .fil0 {fill:white}
   ]]>
  </style>
 </defs>
 <g id="Слой_x0020_1">
  <metadata id="CorelCorpID_0Corel-Layer"/>
  <g id="_1826284510528">
   <g id="guidlines">
   </g>
   <g id="FB">
   </g>
   <g id="ig">
   </g>
   <g id="yt">
   </g>
   <g id="twitter">
   </g>
   <g id="snapchat">
   </g>
   <g id="WA">
   </g>
   <g id="Pinterrest">
    <g>
     <g>
      <path class="fil0" d="M20826 13781c0,5447 -4397,9844 -9844,9844 -919,0 -1772,-131 -2625,-361l984 -1936 558 -3117c0,0 591,1214 2297,1181 1739,-33 3216,-722 4561,-3347 1345,-2592 197,-7317 -3905,-8268 -4101,-952 -7579,1443 -8137,4856 -525,3412 2165,4758 2165,4758l394 -1444c0,0 -1673,-2100 -197,-4594 1477,-2494 5283,-2756 7022,-754 1739,2001 755,5446 -394,6496 -1148,1050 -2296,755 -2756,394 -459,-361 -689,-1017 -262,-2362 426,-1346 820,-2264 492,-3150 -328,-886 -1739,-755 -2199,-164 -459,590 -1017,1640 -393,3314l-1543 5545 0 2133c-3478,-1510 -5906,-4988 -5906,-9024 0,-5447 4397,-9843 9844,-9843 5447,0 9844,4396 9844,9843z"/>
     </g>
    </g>
   </g>
   <g id="Layer_9">
   </g>
   <g id="Layer_10">
   </g>
   <g id="Layer_11">
   </g>
   <g id="Layer_12">
   </g>
   <g id="Layer_13">
   </g>
   <g id="Layer_14">
   </g>
   <g id="Layer_15">
   </g>
   <g id="Layer_16">
   </g>
   <g id="Layer_17">
   </g>
  </g>
 </g>
</svg>
