<?xml version="1.0" encoding="UTF-8"?>
<!DOCTYPE svg PUBLIC "-//W3C//DTD SVG 1.1//EN" "http://www.w3.org/Graphics/SVG/1.1/DTD/svg11.dtd">
<!-- Creator: CorelDRAW X8 -->
<svg xmlns="http://www.w3.org/2000/svg" xml:space="preserve" width="210mm" height="297mm" version="1.1" style="shape-rendering:geometricPrecision; text-rendering:geometricPrecision; image-rendering:optimizeQuality; fill-rule:evenodd; clip-rule:evenodd"
viewBox="0 0 21000 29700"
 xmlns:xlink="http://www.w3.org/1999/xlink"
 data-name="Layer 1"
 enable-background="new 0 0 512 512">
 <defs>
  <style type="text/css">
   <![CDATA[
    .fil0 {fill:white}
   ]]>
  </style>
 </defs>
 <g id="Слой_x0020_1">
  <metadata id="CorelCorpID_0Corel-Layer"/>
  <g id="_1826284534560">
   <g>
    <g>
     <path id="Tumblr" class="fil0" d="M11132 16989c-352,-205 -679,-562 -806,-908 -132,-347 -112,-1050 -112,-2266l0 -5385 4897 0 0 -3745 -4897 0 0 -4858 -3013 0c-136,1084 -380,1977 -742,2675 -361,703 -835,1304 -1430,1802 -591,498 -1558,884 -2388,1152l0 2974 2876 0 0 7363c0,962 102,1694 303,2202 205,503 566,981 1093,1430 528,445 1162,791 1904,1035 743,240 1314,362 2286,362 849,0 1645,-88 2377,-254 733,-171 1553,-469 2456,-889l0 -3315c-1059,693 -2129,1035 -3198,1035 -600,10 -1137,-132 -1606,-410z"/>
    </g>
   </g>
  </g>
 </g>
</svg>
