<?xml version="1.0" encoding="UTF-8"?>
<!DOCTYPE svg PUBLIC "-//W3C//DTD SVG 1.1//EN" "http://www.w3.org/Graphics/SVG/1.1/DTD/svg11.dtd">
<!-- Creator: CorelDRAW X8 -->
<svg xmlns="http://www.w3.org/2000/svg" xml:space="preserve" width="210mm" height="297mm" version="1.1" style="shape-rendering:geometricPrecision; text-rendering:geometricPrecision; image-rendering:optimizeQuality; fill-rule:evenodd; clip-rule:evenodd"
viewBox="0 0 21000 29700"
 xmlns:xlink="http://www.w3.org/1999/xlink"
 data-name="Layer 1">
 <defs>
  <style type="text/css">
   <![CDATA[
    .fil0 {fill:white}
   ]]>
  </style>
 </defs>
 <g id="Слой_x0020_1">
  <metadata id="CorelCorpID_0Corel-Layer"/>
  <g id="_1826373025744">
   <g>
    <g>
     <path class="fil0" d="M20141 9141c-140,296 -401,671 -784,1123 -382,453 -854,851 -1416,1194 15,125 27,242 35,352 8,109 12,226 12,351 0,655 -75,1373 -223,2154 -148,780 -378,1572 -690,2376 -313,804 -707,1600 -1183,2388 -476,788 -1041,1518 -1697,2189 -656,671 -1401,1264 -2236,1779 -835,515 -1767,898 -2797,1147 -1202,266 -2404,398 -3606,398 -515,0 -1049,-27 -1603,-82 -555,-54 -1109,-156 -1663,-304 -554,-148 -1100,-347 -1638,-597 -539,-250 -1042,-570 -1511,-960 1218,172 2369,74 3454,-293 1084,-366 2072,-885 2961,-1556 -203,0 -472,-20 -808,-59 -335,-39 -694,-156 -1076,-351 -383,-195 -769,-496 -1159,-901 -391,-406 -734,-976 -1030,-1709 93,31 222,50 386,58 164,8 339,4 527,-12 187,-15 370,-35 550,-58 179,-24 339,-51 480,-82 -812,-250 -1448,-582 -1908,-995 -461,-414 -800,-839 -1019,-1276 -218,-437 -355,-851 -409,-1241 -55,-390 -82,-694 -82,-913 203,125 499,258 889,398 390,141 742,203 1054,187 -640,-530 -1104,-1057 -1393,-1580 -289,-523 -461,-1030 -515,-1522 -55,-491 -28,-971 82,-1439 109,-469 257,-921 445,-1358 858,967 1712,1752 2563,2353 851,600 1662,1065 2435,1393 772,327 1494,546 2165,655 672,109 1257,164 1756,164 -93,-624 -97,-1217 -12,-1779 86,-562 266,-1077 539,-1545 273,-469 636,-871 1089,-1206 452,-336 991,-589 1615,-761 765,-219 1498,-211 2201,23 702,234 1303,640 1802,1218 219,-16 562,-86 1030,-211 469,-125 1054,-398 1756,-819 -47,156 -121,347 -222,573 -102,227 -230,457 -386,691 -157,234 -344,460 -562,679 -219,218 -469,398 -750,538 235,-47 492,-101 773,-164 234,-62 507,-144 819,-245 313,-102 633,-223 960,-363z"/>
    </g>
   </g>
   <g>
   </g>
   <g>
   </g>
   <g>
   </g>
   <g>
   </g>
   <g>
   </g>
   <g>
   </g>
   <g>
   </g>
   <g>
   </g>
   <g>
   </g>
   <g>
   </g>
   <g>
   </g>
   <g>
   </g>
   <g>
   </g>
   <g>
   </g>
   <g>
   </g>
  </g>
 </g>
</svg>
